<svg width="35" height="35" viewBox="0 0 35 35" fill="none" xmlns="http://www.w3.org/2000/svg">
<path d="M23.3333 2.91667H11.6667C6.84103 2.91667 2.91666 6.84105 2.91666 11.6667V29.1667C2.91666 29.5534 3.0703 29.9244 3.34379 30.1979C3.61728 30.4714 3.98822 30.625 4.37499 30.625H23.3333C28.1589 30.625 32.0833 26.7006 32.0833 21.875V11.6667C32.0833 6.84105 28.1589 2.91667 23.3333 2.91667ZM29.1667 21.875C29.1667 25.0921 26.5504 27.7083 23.3333 27.7083H5.83332V11.6667C5.83332 8.44959 8.44957 5.83334 11.6667 5.83334H23.3333C26.5504 5.83334 29.1667 8.44959 29.1667 11.6667V21.875Z" fill="#745ACE"/>
<path d="M13.8542 18.9583C15.0623 18.9583 16.0417 17.979 16.0417 16.7708C16.0417 15.5627 15.0623 14.5833 13.8542 14.5833C12.646 14.5833 11.6667 15.5627 11.6667 16.7708C11.6667 17.979 12.646 18.9583 13.8542 18.9583Z" fill="#745ACE"/>
<path d="M21.1458 18.9583C22.354 18.9583 23.3333 17.979 23.3333 16.7708C23.3333 15.5627 22.354 14.5833 21.1458 14.5833C19.9377 14.5833 18.9583 15.5627 18.9583 16.7708C18.9583 17.979 19.9377 18.9583 21.1458 18.9583Z" fill="#745ACE"/>
</svg>
