<svg width="37" height="38" viewBox="0 0 37 38" fill="none" xmlns="http://www.w3.org/2000/svg">
<path d="M23.5238 5.65475H11.7619C6.8969 5.65475 2.94049 9.61117 2.94049 14.4762V32.119C2.94049 32.509 3.09539 32.8829 3.37111 33.1587C3.64684 33.4344 4.0208 33.5893 4.41073 33.5893H23.5238C28.3888 33.5893 32.3453 29.6329 32.3453 24.7678V14.4762C32.3453 9.61117 28.3888 5.65475 23.5238 5.65475ZM29.4048 24.7678C29.4048 28.0112 26.7672 30.6488 23.5238 30.6488H5.88097V14.4762C5.88097 11.2328 8.51857 8.59523 11.7619 8.59523H23.5238C26.7672 8.59523 29.4048 11.2328 29.4048 14.4762V24.7678Z" fill="#745ACE"/>
<path d="M13.9673 21.8274C15.1852 21.8274 16.1726 20.84 16.1726 19.622C16.1726 18.404 15.1852 17.4167 13.9673 17.4167C12.7493 17.4167 11.7619 18.404 11.7619 19.622C11.7619 20.84 12.7493 21.8274 13.9673 21.8274Z" fill="#745ACE"/>
<path d="M21.3185 21.8274C22.5364 21.8274 23.5238 20.84 23.5238 19.622C23.5238 18.404 22.5364 17.4167 21.3185 17.4167C20.1005 17.4167 19.1131 18.404 19.1131 19.622C19.1131 20.84 20.1005 21.8274 21.3185 21.8274Z" fill="#745ACE"/>
<ellipse cx="29.1786" cy="7.46429" rx="7.46429" ry="7.46429" fill="#FFA588"/>
</svg>
