<svg width="36" height="36" viewBox="0 0 36 36" fill="none" xmlns="http://www.w3.org/2000/svg">
<path d="M22.5 18C22.5 19.1935 22.0259 20.3381 21.182 21.182C20.3381 22.0259 19.1935 22.5 18 22.5C16.8065 22.5 15.6619 22.0259 14.818 21.182C13.9741 20.3381 13.5 19.1935 13.5 18C13.5 16.8065 13.9741 15.6619 14.818 14.818C15.6619 13.9741 16.8065 13.5 18 13.5C19.1935 13.5 20.3381 13.9741 21.182 14.818C22.0259 15.6619 22.5 16.8065 22.5 18V18Z" stroke="#745ACE" stroke-width="3" stroke-linejoin="round"/>
<path d="M15.705 6.48001C16.608 4.52101 19.392 4.52101 20.295 6.48001L20.622 7.18951C20.8881 7.76672 21.362 8.22241 21.9492 8.46568C22.5364 8.70895 23.1937 8.72192 23.79 8.50201L24.525 8.23201C26.547 7.48501 28.515 9.45301 27.768 11.4765L27.498 12.21C27.2781 12.8063 27.2911 13.4637 27.5343 14.0508C27.7776 14.638 28.2333 15.1119 28.8105 15.378L29.5215 15.705C31.479 16.608 31.479 19.392 29.5215 20.295L28.8105 20.622C28.2333 20.8881 27.7776 21.362 27.5343 21.9492C27.2911 22.5364 27.2781 23.1937 27.498 23.79L27.768 24.525C28.515 26.547 26.547 28.515 24.5235 27.768L23.79 27.498C23.1937 27.2781 22.5364 27.2911 21.9492 27.5343C21.362 27.7776 20.8881 28.2333 20.622 28.8105L20.295 29.52C19.392 31.479 16.608 31.479 15.705 29.52L15.378 28.8105C15.1119 28.2333 14.638 27.7776 14.0508 27.5343C13.4636 27.2911 12.8063 27.2781 12.21 27.498L11.475 27.768C9.453 28.515 7.485 26.547 8.2305 24.5235L8.502 23.79C8.72192 23.1937 8.70894 22.5364 8.46567 21.9492C8.2224 21.362 7.76671 20.8881 7.1895 20.622L6.4785 20.295C4.521 19.392 4.521 16.608 6.4785 15.705L7.1895 15.378C7.76671 15.1119 8.2224 14.638 8.46567 14.0508C8.70894 13.4637 8.72192 12.8063 8.502 12.21L8.232 11.475C7.485 9.45301 9.453 7.48501 11.4765 8.23051L12.21 8.50201C12.8063 8.72192 13.4636 8.70895 14.0508 8.46568C14.638 8.22241 15.1119 7.76672 15.378 7.18951L15.705 6.47851V6.48001Z" stroke="#745ACE" stroke-width="3" stroke-linejoin="round"/>
</svg>
